<?xml version="1.0" encoding="UTF-8" standalone="no"?>
<svg
   xmlns:osb="http://www.openswatchbook.org/uri/2009/osb"
   xmlns:dc="http://purl.org/dc/elements/1.1/"
   xmlns:cc="http://creativecommons.org/ns#"
   xmlns:rdf="http://www.w3.org/1999/02/22-rdf-syntax-ns#"
   xmlns:svg="http://www.w3.org/2000/svg"
   xmlns="http://www.w3.org/2000/svg"
   xmlns:sodipodi="http://sodipodi.sourceforge.net/DTD/sodipodi-0.dtd"
   xmlns:inkscape="http://www.inkscape.org/namespaces/inkscape"
   version="1.1"
   width="45"
   height="45"
   id="svg44"
   sodipodi:docname="red_black_king.svg"
   inkscape:version="1.0.1 (3bc2e813f5, 2020-09-07)">
  <metadata
     id="metadata50">
    <rdf:RDF>
      <cc:Work
         rdf:about="">
        <dc:format>image/svg+xml</dc:format>
        <dc:type
           rdf:resource="http://purl.org/dc/dcmitype/StillImage" />
        <dc:title></dc:title>
      </cc:Work>
    </rdf:RDF>
  </metadata>
  <defs
     id="defs48">
    <linearGradient
       id="linearGradient884"
       osb:paint="solid">
      <stop
         style="stop-color:#000000;stop-opacity:1;"
         offset="0"
         id="stop882" />
    </linearGradient>
  </defs>
  <sodipodi:namedview
     pagecolor="#ffffff"
     bordercolor="#666666"
     borderopacity="1"
     objecttolerance="10"
     gridtolerance="10"
     guidetolerance="10"
     inkscape:pageopacity="0"
     inkscape:pageshadow="2"
     inkscape:window-width="1920"
     inkscape:window-height="1017"
     id="namedview46"
     showgrid="false"
     inkscape:zoom="13.356461"
     inkscape:cx="9.2137796"
     inkscape:cy="26.717063"
     inkscape:window-x="1912"
     inkscape:window-y="1072"
     inkscape:window-maximized="1"
     inkscape:current-layer="layer1"
     inkscape:document-rotation="0" />
  <g
     inkscape:groupmode="layer"
     id="layer1"
     inkscape:label="bg"
     style="display:inline;opacity:0.730769">
    <rect
       style="fill:#d40000;fill-opacity:1;stroke:none"
       id="rect57"
       width="52.109612"
       height="50.237858"
       x="-2.9199352"
       y="-1.9466233" />
  </g>
  <g
     style="fill:none; fill-opacity:1; fill-rule:evenodd; stroke:#000000; stroke-width:1.5; stroke-linecap:round;stroke-linejoin:round;stroke-miterlimit:4; stroke-dasharray:none; stroke-opacity:1;"
     id="g42">
    <path
       d="M 22.5,11.63 L 22.5,6"
       style="fill:none; stroke:#000000; stroke-linejoin:miter;"
       id="path6570" />
    <path
       d="M 22.5,25 C 22.5,25 27,17.5 25.5,14.5 C 25.5,14.5 24.5,12 22.5,12 C 20.5,12 19.5,14.5 19.5,14.5 C 18,17.5 22.5,25 22.5,25"
       style="fill:#000000;fill-opacity:1; stroke-linecap:butt; stroke-linejoin:miter;"
       id="path32" />
    <path
       d="M 12.5,37 C 18,40.5 27,40.5 32.5,37 L 32.5,30 C 32.5,30 41.5,25.5 38.5,19.5 C 34.5,13 25,16 22.5,23.5 L 22.5,27 L 22.5,23.5 C 20,16 10.5,13 6.5,19.5 C 3.5,25.5 12.5,30 12.5,30 L 12.5,37"
       style="fill:#000000; stroke:#000000;"
       id="path34" />
    <path
       d="M 20,8 L 25,8"
       style="fill:none; stroke:#000000; stroke-linejoin:miter;"
       id="path36" />
    <path
       d="M 32,29.5 C 32,29.5 40.5,25.5 38.03,19.85 C 34.15,14 25,18 22.5,24.5 L 22.5,26.6 L 22.5,24.5 C 20,18 10.85,14 6.97,19.85 C 4.5,25.5 13,29.5 13,29.5"
       style="fill:none; stroke:#ffffff;"
       id="path38" />
    <path
       d="M 12.5,30 C 18,27 27,27 32.5,30 M 12.5,33.5 C 18,30.5 27,30.5 32.5,33.5 M 12.5,37 C 18,34 27,34 32.5,37"
       style="fill:none; stroke:#ffffff;"
       id="path40" />
  </g>
</svg>
